<svg width="87" height="20" viewBox="0 0 87 20" fill="none" xmlns="http://www.w3.org/2000/svg">
<path d="M4.94023 0.5V19H0.665234V0.5H4.94023ZM21.8133 5.05V19H17.5383V17.1C17.1049 17.7167 16.5133 18.2167 15.7633 18.6C15.0299 18.9667 14.2133 19.15 13.3133 19.15C12.2466 19.15 11.3049 18.9167 10.4883 18.45C9.67161 17.9667 9.03828 17.275 8.58828 16.375C8.13828 15.475 7.91328 14.4167 7.91328 13.2V5.05H12.1633V12.625C12.1633 13.5583 12.4049 14.2833 12.8883 14.8C13.3716 15.3167 14.0216 15.575 14.8383 15.575C15.6716 15.575 16.3299 15.3167 16.8133 14.8C17.2966 14.2833 17.5383 13.5583 17.5383 12.625V5.05H21.8133ZM33.134 19L30.459 15.125L28.209 19H23.584L28.184 11.875L23.459 5.05H28.259L30.934 8.9L33.184 5.05H37.809L33.134 12.075L37.934 19H33.134ZM38.7313 12.025C38.7313 10.575 39.0229 9.30833 39.6063 8.225C40.2063 7.14167 41.0313 6.30833 42.0813 5.725C43.1479 5.14167 44.3646 4.85 45.7313 4.85C47.4813 4.85 48.9396 5.30833 50.1063 6.225C51.2896 7.14167 52.0646 8.43333 52.4313 10.1H47.8813C47.4979 9.03333 46.7563 8.5 45.6563 8.5C44.8729 8.5 44.2479 8.80833 43.7813 9.425C43.3146 10.025 43.0813 10.8917 43.0813 12.025C43.0813 13.1583 43.3146 14.0333 43.7813 14.65C44.2479 15.25 44.8729 15.55 45.6563 15.55C46.7563 15.55 47.4979 15.0167 47.8813 13.95H52.4313C52.0646 15.5833 51.2896 16.8667 50.1063 17.8C48.9229 18.7333 47.4646 19.2 45.7313 19.2C44.3646 19.2 43.1479 18.9083 42.0813 18.325C41.0313 17.7417 40.2063 16.9083 39.6063 15.825C39.0229 14.7417 38.7313 13.475 38.7313 12.025ZM53.868 12C53.868 10.5667 54.1346 9.30833 54.668 8.225C55.218 7.14167 55.9596 6.30833 56.893 5.725C57.8263 5.14167 58.868 4.85 60.018 4.85C61.0013 4.85 61.8596 5.05 62.593 5.45C63.343 5.85 63.918 6.375 64.318 7.025V5.05H68.593V19H64.318V17.025C63.9013 17.675 63.318 18.2 62.568 18.6C61.8346 19 60.9763 19.2 59.993 19.2C58.8596 19.2 57.8263 18.9083 56.893 18.325C55.9596 17.725 55.218 16.8833 54.668 15.8C54.1346 14.7 53.868 13.4333 53.868 12ZM64.318 12.025C64.318 10.9583 64.018 10.1167 63.418 9.5C62.8346 8.88333 62.118 8.575 61.268 8.575C60.418 8.575 59.693 8.88333 59.093 9.5C58.5096 10.1 58.218 10.9333 58.218 12C58.218 13.0667 58.5096 13.9167 59.093 14.55C59.693 15.1667 60.418 15.475 61.268 15.475C62.118 15.475 62.8346 15.1667 63.418 14.55C64.018 13.9333 64.318 13.0917 64.318 12.025ZM75.9607 7.375C76.4607 6.60833 77.0857 6.00833 77.8357 5.575C78.5857 5.125 79.4191 4.9 80.3357 4.9V9.425H79.1607C78.0941 9.425 77.2941 9.65833 76.7607 10.125C76.2274 10.575 75.9607 11.375 75.9607 12.525V19H71.6857V5.05H75.9607V7.375ZM84.3791 19.2C83.6291 19.2 83.0124 18.9833 82.5291 18.55C82.0624 18.1 81.8291 17.55 81.8291 16.9C81.8291 16.2333 82.0624 15.675 82.5291 15.225C83.0124 14.775 83.6291 14.55 84.3791 14.55C85.1124 14.55 85.7124 14.775 86.1791 15.225C86.6624 15.675 86.9041 16.2333 86.9041 16.9C86.9041 17.55 86.6624 18.1 86.1791 18.55C85.7124 18.9833 85.1124 19.2 84.3791 19.2Z" fill="#2945A9"/>
</svg>
